HIERARCHY
ROOT joint_Root
{
	OFFSET 0.0 0.0 0.0
	CHANNELS 6 Xposition Yposition Zposition Zrotation Xrotation Yrotation 
	JOINT Hips
	{
		OFFSET 4.5925 91.4895 -427.239
		CHANNELS 6 Xposition Yposition Zposition Zrotation Xrotation Yrotation 
		JOINT Spine
		{
			OFFSET 15.7357 0.0 0.0
			CHANNELS 6 Xposition Yposition Zposition Zrotation Xrotation Yrotation 
			JOINT Chest
			{
				OFFSET 8.98455 -0.406207 0.0
				CHANNELS 6 Xposition Yposition Zposition Zrotation Xrotation Yrotation 
				JOINT Neck
				{
					OFFSET 16.3773 0.0 0.0
					CHANNELS 6 Xposition Yposition Zposition Zrotation Xrotation Yrotation 
					JOINT Head
					{
						OFFSET 6.45672 0.0 0.0
						CHANNELS 6 Xposition Yposition Zposition Zrotation Xrotation Yrotation 
						End Site
						{
							OFFSET 0.0 0.0 0.0
						}
					}
				}
				JOINT Shoulder_L
				{
					OFFSET 12.9942 -0.242716 4.98039
					CHANNELS 6 Xposition Yposition Zposition Zrotation Xrotation Yrotation 
					JOINT UpperArm_L
					{
						OFFSET 5.34809 0.0 0.0
						CHANNELS 6 Xposition Yposition Zposition Zrotation Xrotation Yrotation 
						JOINT LowerArm_L
						{
							OFFSET 24.3286 1.87007e-05 0.0
							CHANNELS 6 Xposition Yposition Zposition Zrotation Xrotation Yrotation 
							JOINT Hand_L
							{
								OFFSET 22.2916 0.0 0.0
								CHANNELS 6 Xposition Yposition Zposition Zrotation Xrotation Yrotation 
								End Site
								{
									OFFSET 0.0 0.0 0.0
								}
							}
						}
					}
				}
				JOINT Shoulder_R
				{
					OFFSET 12.9945 -0.242716 -4.98039
					CHANNELS 6 Xposition Yposition Zposition Zrotation Xrotation Yrotation 
					JOINT UpperArm_R
					{
						OFFSET -5.34813 0.0 0.0
						CHANNELS 6 Xposition Yposition Zposition Zrotation Xrotation Yrotation 
						JOINT LowerArm_R
						{
							OFFSET -24.3289 0.000322201 0.0
							CHANNELS 6 Xposition Yposition Zposition Zrotation Xrotation Yrotation 
							JOINT Hand_R
							{
								OFFSET -22.2915 -0.000108084 0.0
								CHANNELS 6 Xposition Yposition Zposition Zrotation Xrotation Yrotation 
								End Site
								{
									OFFSET 0.0 0.0 0.0
								}
							}
						}
					}
				}
			}
		}
		JOINT UpperLeg_L
		{
			OFFSET -2.19248 -6.46944 0.0
			CHANNELS 6 Xposition Yposition Zposition Zrotation Xrotation Yrotation 
			JOINT LowerLeg_L
			{
				OFFSET 39.0811 0.0 -1.23785e-05
				CHANNELS 6 Xposition Yposition Zposition Zrotation Xrotation Yrotation 
				JOINT Foot_L
				{
					OFFSET 40.9854 0.0 -1.26872e-05
					CHANNELS 6 Xposition Yposition Zposition Zrotation Xrotation Yrotation 
					JOINT Toes_L
					{
						OFFSET 11.7543 0.0 0.0
						CHANNELS 6 Xposition Yposition Zposition Zrotation Xrotation Yrotation 
						End Site
						{
							OFFSET 0.0 0.0 0.0
						}
					}
				}
			}
		}
		JOINT UpperLeg_R
		{
			OFFSET -2.19251 6.46944 0.0
			CHANNELS 6 Xposition Yposition Zposition Zrotation Xrotation Yrotation 
			JOINT LowerLeg_R
			{
				OFFSET -39.0811 -0.00228153 -0.0401928
				CHANNELS 6 Xposition Yposition Zposition Zrotation Xrotation Yrotation 
				JOINT Foot_R
				{
					OFFSET -40.9854 0.0 0.0
					CHANNELS 6 Xposition Yposition Zposition Zrotation Xrotation Yrotation 
					JOINT Toes_R
					{
						OFFSET -11.7543 0.0 0.0
						CHANNELS 6 Xposition Yposition Zposition Zrotation Xrotation Yrotation 
						End Site
						{
							OFFSET 0.0 0.0 0.0
						}
					}
				}
			}
		}
	}
}
MOTION
Frames:	6
Frame Time:	0.0333333
0.000000 0.000000 0.000000 0.000000 0.000000 -0.000000 -1.543530 86.223400 -423.099000 87.200400 4.706490 -17.682400 15.735700 0.000005 -0.000001 59.674200 80.022200 -55.963900 8.984550 -0.406207 -0.000000 9.905310 -9.946740 8.294470 16.377300 -0.000001 -0.000001 -3.143090 1.686630 -1.221690 6.456720 -0.000001 -0.000000 -9.692970 6.458050 1.657320 12.994200 -0.242716 4.980390 -88.193800 -6.826220 -75.139300 5.348090 -0.000007 -0.000001 -67.825100 27.543100 -26.086000 24.328600 0.000019 0.000005 2.607020 0.018720 -89.805300 22.291600 -0.000001 0.000005 6.080110 5.423380 -3.714220 12.994500 -0.242716 -4.980390 88.967300 4.107070 -75.836100 -5.348130 -0.000001 -0.000004 -59.726800 13.888700 24.265000 -24.328900 0.000322 -0.000009 -14.581500 -6.207760 -67.420200 -22.291500 -0.000108 -0.000004 13.614200 5.579300 -10.169900 -2.192480 -6.469440 -0.000000 -172.189000 -2.708000 -4.350720 39.081100 -0.000007 -0.000012 0.488270 -0.062717 82.679900 40.985400 -0.000006 -0.000013 -9.130830 0.640216 -9.655250 11.754300 -0.000000 0.000003 -0.000272 -0.004461 -16.758600 -2.192510 6.469440 -0.000001 -167.116000 19.509600 130.673000 -39.081100 -0.002282 -0.040193 0.281378 -0.247270 48.361200 -40.985400 0.000008 0.000006 4.665190 2.097380 -69.658500 -11.754300 -0.000006 -0.000006 -0.022819 -0.182432 -24.032300
0.000000 0.000000 0.000000 0.000000 0.000000 -0.000000 -2.080730 83.018200 -416.115000 84.643500 1.402310 -15.306400 15.735700 0.000005 -0.000001 72.308100 80.327400 -67.986100 8.984550 -0.406207 -0.000000 10.936400 -5.716670 9.193290 16.377300 -0.000001 -0.000001 -4.252980 1.990260 -1.171090 6.456720 -0.000001 -0.000000 -8.342940 5.432520 -0.901316 12.994200 -0.242716 4.980390 -89.315300 -2.693220 -75.735900 5.348090 -0.000007 -0.000001 -68.651400 27.475300 -15.589000 24.328600 0.000019 0.000005 10.380000 4.011240 -69.200800 22.291600 -0.000001 0.000005 1.781430 5.444150 -4.436560 12.994500 -0.242716 -4.980390 87.659200 10.796300 -77.685600 -5.348130 -0.000001 -0.000004 -56.662400 13.598100 11.021800 -24.328900 0.000322 -0.000009 -17.116600 -5.931590 -71.449300 -22.291500 -0.000108 -0.000004 15.712000 5.566750 -9.528900 -2.192480 -6.469440 -0.000000 -171.778000 -6.272990 -15.859800 39.081100 -0.000007 -0.000012 0.600442 0.195271 108.013000 40.985400 -0.000006 -0.000013 -8.501610 0.133407 -4.333150 11.754300 -0.000000 0.000003 -0.000916 -0.014211 -17.154800 -2.192510 6.469440 -0.000001 -168.508000 14.342600 134.247000 -39.081100 -0.002282 -0.040193 -0.151670 0.094608 58.581200 -40.985400 0.000008 0.000006 3.125170 0.067694 -79.572900 -11.754300 -0.000006 -0.000006 -0.007181 -0.081213 -19.879400
0.000000 0.000000 0.000000 0.000000 0.000000 -0.000000 -3.059570 80.487200 -409.206000 82.757200 -0.837953 -11.938500 15.735700 0.000005 -0.000001 79.805400 79.319600 -75.127200 8.984550 -0.406207 -0.000000 13.438300 -3.508890 9.774290 16.377300 -0.000001 -0.000001 -4.792030 2.391750 -0.821124 6.456720 -0.000001 -0.000000 -7.874450 6.502270 -3.240960 12.994200 -0.242716 4.980390 -90.172000 0.673570 -75.682900 5.348090 -0.000007 -0.000001 -65.949900 25.883300 -7.417230 24.328600 0.000019 0.000005 10.548400 12.222700 -41.411700 22.291600 -0.000001 0.000005 2.016950 5.411540 -3.312290 12.994500 -0.242716 -4.980390 87.055400 13.972600 -77.974000 -5.348130 -0.000001 -0.000004 -57.135600 17.451000 -11.864600 -24.328900 0.000322 -0.000009 -15.862100 -3.532730 -77.764800 -22.291500 -0.000108 -0.000004 15.523700 5.571560 -9.772930 -2.192480 -6.469440 -0.000000 -171.118000 -6.195270 -30.549600 39.081100 -0.000007 -0.000012 0.273854 0.209267 127.382000 40.985400 -0.000006 -0.000013 -11.907100 4.135240 4.579990 11.754300 -0.000000 0.000003 -0.001133 -0.017281 -17.279500 -2.192510 6.469440 -0.000001 -168.752000 11.851000 141.279000 -39.081100 -0.002282 -0.040193 -0.249419 0.123022 64.032300 -40.985400 0.000008 0.000006 2.088970 -1.050740 -87.966000 -11.754300 -0.000006 -0.000006 -0.004175 -0.053251 -18.739300
0.000000 0.000000 0.000000 0.000000 0.000000 -0.000000 -3.397860 78.646600 -401.606000 83.203000 -4.107640 -10.661200 15.735700 0.000005 -0.000001 85.390600 79.276900 -81.446200 8.984550 -0.406207 -0.000000 13.678800 -1.500980 8.071320 16.377300 -0.000001 -0.000001 -4.286330 2.278490 -0.009707 6.456720 -0.000001 -0.000000 -6.256500 6.519780 -3.693400 12.994200 -0.242716 4.980390 -90.257400 0.953404 -74.890200 5.348090 -0.000007 -0.000001 -64.118500 18.622500 4.585710 24.328600 0.000019 0.000005 17.332200 34.948900 -28.609000 22.291600 -0.000001 0.000005 -5.309560 5.454610 -4.849410 12.994500 -0.242716 -4.980390 87.948700 11.856800 -80.123100 -5.348130 -0.000001 -0.000004 -59.765100 22.615300 -35.257400 -24.328900 0.000322 -0.000009 -9.836110 -0.738467 -85.842700 -22.291500 -0.000108 -0.000004 10.879300 5.566090 -9.466150 -2.192480 -6.469440 -0.000000 -173.229000 -6.778120 -47.163400 39.081100 -0.000007 -0.000012 -0.084562 -0.090927 137.083000 40.985400 -0.000006 -0.000013 -15.105600 7.052260 10.383200 11.754300 -0.000000 0.000003 -0.001367 -0.020501 -17.410400 -2.192510 6.469440 -0.000001 -171.519000 10.736000 148.592000 -39.081100 -0.002282 -0.040193 -0.222634 0.100793 65.944100 -40.985400 0.000008 0.000006 1.532830 0.585146 -95.181800 -11.754300 -0.000006 -0.000006 -0.004669 -0.058226 -18.942000
0.000000 0.000000 0.000000 0.000000 0.000000 -0.000000 -2.690970 79.018400 -392.574000 85.876400 -10.640600 -11.283100 15.735700 0.000005 -0.000001 99.641800 79.936800 -97.722300 8.984550 -0.406207 -0.000000 12.036700 3.412680 3.478990 16.377300 -0.000001 -0.000001 -3.709100 1.454980 1.464380 6.456720 -0.000001 -0.000000 -5.382640 3.766280 -3.601670 12.994200 -0.242716 4.980390 -90.190200 0.604862 -72.542200 5.348090 -0.000007 -0.000001 -57.809800 18.387100 16.909900 24.328600 0.000019 0.000005 25.179900 43.136700 -34.516400 22.291600 -0.000001 0.000005 -10.140300 5.470720 -5.395400 12.994500 -0.242716 -4.980390 89.218300 6.250490 -82.859200 -5.348130 -0.000001 -0.000004 -58.644300 23.802600 -53.431400 -24.328900 0.000322 -0.000009 -2.293190 0.294872 -97.399400 -22.291500 -0.000108 -0.000004 9.207000 5.530490 -7.807010 -2.192480 -6.469440 -0.000000 179.979000 -10.523100 -58.353300 39.081100 -0.000007 -0.000012 -0.119550 -0.118177 134.673000 40.985400 -0.000006 -0.000013 -10.765900 8.734390 1.927260 11.754300 -0.000000 0.000003 -0.001897 -0.027422 -17.691800 -2.192510 6.469440 -0.000001 -178.931000 11.618800 157.054000 -39.081100 -0.002282 -0.040193 -0.096479 0.054732 61.227800 -40.985400 0.000008 0.000006 3.032620 7.589360 -96.675500 -11.754300 -0.000006 -0.000006 -0.010834 -0.109768 -21.046500
0.000000 0.000000 0.000000 0.000000 0.000000 -0.000000 -1.661680 82.086400 -382.217000 88.962400 -14.275600 -12.141900 15.735700 0.000005 -0.000001 112.846000 80.302500 -112.831000 8.984550 -0.406207 -0.000000 10.170300 7.481700 -0.638305 16.377300 -0.000001 -0.000001 -3.013960 0.559123 2.197610 6.456720 -0.000001 -0.000000 -5.073850 0.148019 -2.624610 12.994200 -0.242716 4.980390 -89.604000 -1.063270 -69.616000 5.348090 -0.000007 -0.000001 -53.055200 22.028600 25.346200 24.328600 0.000019 0.000005 15.945300 27.303500 -31.931800 22.291600 -0.000001 0.000005 -7.474950 5.500160 -6.535630 12.994500 -0.242716 -4.980390 89.788400 1.773400 -83.188800 -5.348130 -0.000001 -0.000004 -54.571800 20.426500 -65.314000 -24.328900 0.000322 -0.000009 -3.029960 0.945972 -107.310000 -22.291500 -0.000108 -0.000004 7.832650 5.477740 -5.621370 -2.192480 -6.469440 -0.000000 173.643000 -9.777240 -62.643500 39.081100 -0.000007 -0.000012 -0.075800 -0.049462 123.136000 40.985400 -0.000006 -0.000013 1.527380 7.205840 -18.868000 11.754300 -0.000000 0.000003 -0.001608 -0.023698 -17.540400 -2.192510 6.469440 -0.000001 172.938000 13.074300 167.294000 -39.081100 -0.002282 -0.040193 -0.125244 0.111787 48.977700 -40.985400 0.000008 0.000006 2.643580 13.796500 -86.179500 -11.754300 -0.000006 -0.000006 -0.054353 -0.312955 -29.478000
